<svg width="727" height="501" viewBox="0 0 727 501" fill="none" xmlns="http://www.w3.org/2000/svg">
<g clip-path="url(#clip0)">
<path d="M0 0H103.8V143.1H0V0Z" fill="white"/>
<path d="M0 165.3H103.8V308.4H0V165.3Z" fill="white"/>
<path d="M0 330.5H103.8V473.6H0V330.5Z" fill="white"/>
<path d="M202.71 143.56C212.98 143.56 220.13 138.88 225.07 130.43H225.33C225.33 134.85 225.46 138.75 225.72 142H239.37C238.85 136.41 238.72 129 238.72 121.98V43.72H224.03V68.03C224.03 74.53 224.16 81.03 224.42 85.58H224.16C220 78.43 212.72 73.88 202.84 73.88C185.29 73.88 173.59 88.31 173.59 108.98C173.59 129.91 184.77 143.56 202.71 143.56ZM206.35 131.73C195.95 131.73 189.19 121.98 189.19 108.85C189.19 95.59 196.08 85.71 206.35 85.71C217.01 85.71 224.29 95.59 224.29 108.98C224.29 121.72 216.88 131.73 206.35 131.73ZM290.33 143.56C298.52 143.56 305.93 142.13 311.78 139.4L311.26 126.53C305.41 129.91 299.3 131.73 291.76 131.73C279.02 131.73 270.31 124.45 269.92 112.62H316.07C316.2 111.45 316.33 109.37 316.33 108.2C316.33 84.93 305.8 73.88 287.34 73.88C267.84 73.88 254.84 87.79 254.84 108.33C254.84 130.43 268.36 143.56 290.33 143.56ZM269.92 101.96C270.96 90.78 278.11 84.67 286.82 84.67C296.05 84.67 302.29 90.13 302.29 101.96H269.92ZM346.307 143.56C361.387 143.56 372.047 136.41 372.047 122.89C372.047 112.75 366.197 107.55 354.107 102.87C345.137 99.49 341.887 97.54 341.887 92.6C341.887 87.66 346.437 84.93 352.417 84.93C357.487 84.93 362.297 85.97 367.497 88.44L368.797 76.74C364.247 74.92 358.397 73.88 352.027 73.88C337.207 73.88 327.197 81.42 327.197 93.77C327.197 102.87 331.747 107.68 343.707 112.62C354.107 116.91 357.097 119.12 357.097 124.06C357.097 129.39 351.897 132.25 345.397 132.25C339.807 132.25 333.697 130.82 327.977 127.83L327.067 140.18C333.177 142.52 339.287 143.56 346.307 143.56ZM387.365 63.09H402.965V47.88H387.365V63.09ZM387.755 142H402.705V75.44H387.755V142ZM450.447 170.86C474.887 170.86 484.247 156.17 484.247 138.1V75.44H470.467C470.467 78.82 470.467 81.55 470.727 85.71H470.467C466.437 78.56 459.287 73.88 449.277 73.88C431.077 73.88 419.117 88.18 419.117 108.98C419.117 128.74 430.817 142 448.237 142C458.767 142 465.787 136.67 469.817 129.91H470.077C469.817 132.25 469.817 135.24 469.817 137.45C469.817 151.62 462.667 159.16 449.537 159.16C441.607 159.16 434.067 157.34 425.747 152.92L424.447 166.44C433.157 169.69 441.347 170.86 450.447 170.86ZM451.747 130.17C441.347 130.17 434.717 121.2 434.717 108.33C434.717 95.46 441.737 85.71 451.617 85.71C462.147 85.71 469.557 95.46 469.557 108.07C469.557 120.68 462.147 130.17 451.747 130.17ZM504.793 142H519.483V111.06C519.483 103.78 520.523 98.71 522.473 95.07C525.593 89.61 531.183 85.97 537.293 85.97C550.033 85.97 550.943 96.63 550.943 109.5V142H565.763V103.52C565.763 85.84 559.653 73.88 541.323 73.88C531.703 73.88 524.163 78.56 519.223 86.36H518.963C518.963 82.85 518.703 78.3 518.443 75.44H504.143C504.663 81.81 504.793 88.83 504.793 95.59V142ZM616.6 143.56C624.79 143.56 632.2 142.13 638.05 139.4L637.53 126.53C631.68 129.91 625.57 131.73 618.03 131.73C605.29 131.73 596.58 124.45 596.19 112.62H642.34C642.47 111.45 642.6 109.37 642.6 108.2C642.6 84.93 632.07 73.88 613.61 73.88C594.11 73.88 581.11 87.79 581.11 108.33C581.11 130.43 594.63 143.56 616.6 143.56ZM596.19 101.96C597.23 90.78 604.38 84.67 613.09 84.67C622.32 84.67 628.56 90.13 628.56 101.96H596.19ZM682.847 143.56C693.117 143.56 700.267 138.88 705.207 130.43H705.467C705.467 134.85 705.597 138.75 705.857 142H719.507C718.987 136.41 718.857 129 718.857 121.98V43.72H704.167V68.03C704.167 74.53 704.297 81.03 704.557 85.58H704.297C700.137 78.43 692.857 73.88 682.977 73.88C665.427 73.88 653.727 88.31 653.727 108.98C653.727 129.91 664.907 143.56 682.847 143.56ZM686.487 131.73C676.087 131.73 669.327 121.98 669.327 108.85C669.327 95.59 676.217 85.71 686.487 85.71C697.147 85.71 704.427 95.59 704.427 108.98C704.427 121.72 697.017 131.73 686.487 131.73Z" fill="white"/>
<path d="M178.4 228.09H194V212.88H178.4V228.09ZM178.79 307H193.74V240.44H178.79V307ZM214.833 307H229.523V276.06C229.523 268.78 230.563 263.71 232.513 260.07C235.633 254.61 241.223 250.97 247.333 250.97C260.073 250.97 260.983 261.63 260.983 274.5V307H275.803V268.52C275.803 250.84 269.693 238.88 251.363 238.88C241.743 238.88 234.203 243.56 229.263 251.36H229.003C229.003 247.85 228.743 243.3 228.483 240.44H214.183C214.703 246.81 214.833 253.83 214.833 260.59V307Z" fill="white"/>
<path d="M223.38 471.91C233 471.91 242.1 470.61 251.98 467.49V420.17H217.4V432.78H236.77V457.35C232.87 458.39 228.71 458.65 224.68 458.65C204.27 458.65 191.27 445.52 191.27 425.37C191.27 405.22 205.05 392.22 225.46 392.22C234.04 392.22 243.01 394.56 249.25 397.94L250.42 383.38C242.36 380.26 234.04 379.35 225.2 379.35C194.91 379.35 174.37 397.42 174.37 425.11C174.37 453.84 194.39 471.91 223.38 471.91ZM303.279 472.56C311.469 472.56 318.879 471.13 324.729 468.4L324.209 455.53C318.359 458.91 312.249 460.73 304.709 460.73C291.969 460.73 283.259 453.45 282.869 441.62H329.019C329.149 440.45 329.279 438.37 329.279 437.2C329.279 413.93 318.749 402.88 300.289 402.88C280.789 402.88 267.789 416.79 267.789 437.33C267.789 459.43 281.309 472.56 303.279 472.56ZM282.869 430.96C283.909 419.78 291.059 413.67 299.769 413.67C308.999 413.67 315.239 419.13 315.239 430.96H282.869ZM344.956 471H359.906V442.4C359.906 425.24 366.276 416.01 377.846 416.01C380.316 416.01 382.396 416.27 384.086 416.92V403.66C382.266 403.01 380.316 402.88 377.976 402.88C369.006 402.88 363.026 408.21 359.386 416.4H359.126C359.126 412.89 358.866 407.56 358.606 404.44H344.306C344.826 410.03 344.956 417.18 344.956 424.2V471ZM395.868 471H410.688V441.88C410.688 425.24 416.148 414.97 426.678 414.97C434.478 414.97 437.988 420.43 437.988 431.48V471H452.938V438.5C452.938 422.64 459.438 414.97 468.408 414.97C476.208 414.97 480.238 420.82 480.238 432V471H495.188V431.09C495.188 413.93 488.818 402.88 473.218 402.88C463.338 402.88 455.278 407.69 450.598 416.27C447.998 407.82 440.978 402.88 431.488 402.88C422.258 402.88 413.938 407.69 409.908 415.49H409.648C409.648 412.11 409.518 407.3 409.258 404.44H395.218C395.738 410.81 395.868 417.96 395.868 424.59V471ZM532.884 472.04C543.674 472.04 550.954 467.49 555.504 459.82H555.764C555.634 461.77 555.504 463.98 555.504 465.67C555.504 467.62 555.634 469.96 555.764 471H568.894C568.374 466.97 567.984 460.86 567.984 454.49V447.47C567.984 442.66 568.244 435.38 568.244 429.66C568.244 413.8 560.574 402.88 540.424 402.88C532.624 402.88 523.914 404.57 517.414 408.21L518.064 420.43C523.654 416.79 531.064 414.32 537.954 414.32C549.004 414.32 554.204 419.78 554.204 430.44C551.214 430.18 547.574 430.05 544.844 430.05C522.614 430.05 510.134 437.85 510.134 451.76C510.134 464.37 519.364 472.04 532.884 472.04ZM536.784 460.99C529.764 460.99 525.344 457.48 525.344 451.24C525.344 442.92 533.144 439.54 548.224 439.54C550.824 439.54 552.904 439.67 554.464 439.8C554.464 454.23 547.574 460.99 536.784 460.99ZM587.694 471H602.384V440.06C602.384 432.78 603.424 427.71 605.374 424.07C608.494 418.61 614.084 414.97 620.194 414.97C632.934 414.97 633.844 425.63 633.844 438.5V471H648.664V432.52C648.664 414.84 642.554 402.88 624.224 402.88C614.604 402.88 607.064 407.56 602.124 415.36H601.864C601.864 411.85 601.604 407.3 601.344 404.44H587.044C587.564 410.81 587.694 417.83 587.694 424.59V471ZM673.5 499.86C687.67 499.86 694.43 491.15 701.06 472.95L726.02 404.44H711.07L700.28 436.68C698.33 442.53 694.82 454.49 693.52 459.04H693.26C691.18 451.11 688.45 442.14 686.63 436.68L675.97 404.44H659.72L685.33 473.86C681.82 484.65 678.18 488.16 671.81 488.16C669.21 488.16 666.87 487.77 664.53 486.99L663.49 498.43C666.48 499.34 670.38 499.86 673.5 499.86Z" fill="white"/>
</g>
<defs>
<clipPath id="clip0">
<rect width="726.8" height="500.1" fill="white"/>
</clipPath>
</defs>
</svg>
