<?xml version="1.0" encoding="UTF-8"?>
<svg width="124px" height="63px" viewBox="0 0 124 63" version="1.1" xmlns="http://www.w3.org/2000/svg" xmlns:xlink="http://www.w3.org/1999/xlink">
    <!-- Generator: Sketch 62 (91390) - https://sketch.com -->
    <title>IF_AWARD</title>
    <desc>Created with Sketch.</desc>
    <g id="🔹__Symbols" stroke="none" stroke-width="1" fill="none" fill-rule="evenodd">
        <g id="UI-/-Footer" transform="translate(-592.000000, -339.000000)">
            <g id="Footer">
                <g id="Awards" transform="translate(265.000000, 115.000000)">
                    <g id="IF_AWARD" transform="translate(327.000000, 224.000000)">
                        <polygon id="Fill-1" fill="#FEFEFE" points="0 62.9253731 124 62.9253731 124 0 0 0"></polygon>
                        <polygon id="Fill-2" fill="#414248" points="2.9245283 60.5948038 60.8301887 60.5948038 60.8301887 2.91321172 2.9245283 2.91321172"></polygon>
                        <g id="Group-19" transform="translate(14.037736, 2.913212)">
                            <path d="M24.9564031,33.3730055 L33.9593866,33.3730055 L33.9593866,24.2849659 L24.9564031,24.2849659 L24.9564031,33.3730055 Z M12.9455979,45.4874389 L21.9515074,45.4874389 L21.9515074,12.1675799 L12.9455979,12.1675799 L12.9455979,45.4874389 Z M24.9564031,21.2526668 L33.9593866,21.2526668 L33.9593866,12.1675799 L24.9564031,12.1675799 L24.9564031,21.2526668 Z M5.44067342,11.5623011 C2.62303509,11.5623011 0.337909919,13.8653131 0.337909919,16.7115997 C0.337909919,19.5549337 2.62303509,21.8608982 5.44067342,21.8608982 C8.26123765,21.8608982 10.5434369,19.5549337 10.5434369,16.7115997 C10.5434369,13.8653131 8.26123765,11.5623011 5.44067342,11.5623011 L5.44067342,11.5623011 Z M0.958199978,45.4874389 L9.96410941,45.4874389 L9.96410941,24.2820134 L0.958199978,24.2820134 L0.958199978,45.4874389 Z" id="Fill-3" fill="#FEFEFE"></path>
                            <polygon id="Fill-5" fill="#414248" points="48.9692357 57.6018724 106.003736 57.6018724 106.003736 0.0472412711 48.9692357 0.0472412711"></polygon>
                            <path d="M63.0518681,13.9925692 C62.5515398,13.7179794 61.7352147,13.5083462 60.8954824,13.5083462 C59.1721294,13.5083462 58.051511,14.6628048 58.051511,16.4993092 C58.051511,18.2974301 59.0667971,19.5020825 60.8603717,19.5020825 C61.1997757,19.5020825 61.5596609,19.4666515 61.8171398,19.3780742 L61.8171398,17.2197386 L60.0791573,17.2197386 L60.0791573,15.8290737 L63.3766427,15.8290737 L63.3766427,20.4823389 C62.5047255,20.8071226 61.5713645,20.9429413 60.6380035,20.9429413 C58.1451397,20.9429413 56.2930472,19.2540658 56.2930472,16.4874989 C56.2930472,13.7947464 58.0866218,12.105871 60.907186,12.105871 C61.7118075,12.105871 62.5047255,12.1944484 63.168904,12.442465 L63.0518681,13.9925692 Z" id="Fill-6" fill="#FEFEFE"></path>
                            <path d="M66.6536467,16.5356259 C66.6536467,18.4223242 67.5401934,19.6505972 68.8919576,19.6505972 C70.1852038,19.6505972 71.0922317,18.3868932 71.0922317,16.5238156 C71.0922317,14.5898761 70.208611,13.397034 68.8451432,13.397034 C67.5401934,13.397034 66.6536467,14.6371173 66.6536467,16.5356259 M72.8419178,16.4854321 C72.8419178,19.2549516 71.2677855,21.0058312 68.8451432,21.0058312 C66.4429822,21.0058312 64.892257,19.2785722 64.892257,16.5356259 C64.892257,13.6686713 66.3844643,12.0447526 68.935846,12.0447526 C71.3263034,12.0447526 72.8419178,13.7454383 72.8419178,16.4854321" id="Fill-7" fill="#FEFEFE"></path>
                            <polygon id="Fill-8" fill="#FEFEFE" points="74.415465 12.1932673 76.0598188 12.1932673 76.0598188 19.3680354 79.2168611 19.3680354 79.2168611 20.8561354 74.415465 20.8561354"></polygon>
                            <path d="M82.1658722,19.5257031 L82.5930531,19.5257031 C84.404183,19.5257031 85.84665,18.7698428 85.84665,16.549503 C85.84665,14.2140127 84.404183,13.5585401 82.5930531,13.5585401 L82.1658722,13.5585401 L82.1658722,19.5257031 Z M82.7451997,12.1944484 C85.4984683,12.1944484 87.5495218,13.3577647 87.5495218,16.5613134 C87.5495218,19.5877073 85.4370245,20.8543639 82.7451997,20.8543639 L80.5215184,20.8543639 L80.5215184,12.1944484 L82.7451997,12.1944484 Z" id="Fill-9" fill="#FEFEFE"></path>
                            <path d="M60.4873199,27.8443005 C60.3117661,27.3216939 60.0338059,26.3296272 59.9284736,25.8837877 L59.9050665,25.8837877 C59.7880306,26.3296272 59.4866633,27.3216939 59.3111095,27.8443005 L58.6352274,29.8668174 L61.1632019,29.8668174 L60.4873199,27.8443005 Z M64.100802,33.1796115 L62.3160052,33.1796115 L61.6050123,31.1807152 L58.2168242,31.1807152 L57.5029054,33.1796115 L55.8146631,33.1796115 L59.0068162,24.5167434 L60.8589087,24.5167434 L64.100802,33.1796115 Z" id="Fill-10" fill="#FEFEFE"></path>
                            <path d="M69.9850725,27.3831075 C69.9031474,26.9874619 69.7422231,26.228649 69.6807793,25.7562363 L69.660298,25.7562363 C69.60178,26.228649 69.4730406,26.972699 69.3911155,27.3831075 L68.1797943,33.179021 L66.1053337,33.179021 L63.8553193,24.5161529 L65.616709,24.5161529 L66.7929194,29.703835 C66.8514373,29.9902352 67.1089162,31.2450815 67.1791377,31.8267396 L67.199619,31.8267396 C67.2815441,31.2450815 67.5156158,29.9902352 67.5741338,29.703835 L68.6333083,24.5161529 L70.8131012,24.5161529 L71.9337196,29.703835 C72.0010152,30.0049981 72.2233833,31.2568918 72.3053084,31.8267396 L72.3287156,31.8267396 C72.4106407,31.2568918 72.6417865,30.0286187 72.712008,29.703835 L73.8794407,24.5161529 L75.5091651,24.5161529 L73.3293722,33.179021 L71.2666152,33.179021 L69.9850725,27.3831075 Z" id="Fill-11" fill="#FEFEFE"></path>
                            <path d="M79.8915729,27.8443005 C79.7160191,27.3216939 79.4380589,26.3296272 79.3327266,25.8837877 L79.3093195,25.8837877 C79.1922836,26.3296272 78.8909163,27.3216939 78.7153625,27.8443005 L78.0394804,29.8668174 L80.567455,29.8668174 L79.8915729,27.8443005 Z M83.5021292,33.1796115 L81.7202582,33.1796115 L81.0092653,31.1807152 L77.6210772,31.1807152 L76.9071584,33.1796115 L75.2189162,33.1796115 L78.4110692,24.5167434 L80.2631617,24.5167434 L83.5021292,33.1796115 Z" id="Fill-12" fill="#FEFEFE"></path>
                            <path d="M86.2434016,28.2393556 L86.7203227,28.2393556 C88.013569,28.2393556 88.5987483,27.8939038 88.5987483,27.0228929 C88.5987483,26.08102 87.8965331,25.8831972 86.7203227,25.8831972 L86.2434016,25.8831972 L86.2434016,28.2393556 Z M84.5990478,24.5161529 L86.9543944,24.5161529 C88.9586335,24.5161529 90.2869906,24.9767553 90.2869906,26.7896391 C90.2869906,27.9322873 89.6462192,28.6113806 88.5870447,28.8357766 L88.5870447,28.8623498 C89.1575945,29.0217891 89.3653332,29.3701935 89.622812,30.0168084 L90.8809475,33.179021 L89.0756694,33.179021 L88.1657156,30.7224749 C87.8292375,29.816033 87.6770909,29.5798267 86.6735084,29.5798267 L86.2434016,29.5798267 L86.2434016,33.179021 L84.5990478,33.179021 L84.5990478,24.5161529 Z" id="Fill-13" fill="#FEFEFE"></path>
                            <path d="M93.9352909,31.8521318 L94.3653977,31.8521318 C96.1736017,31.8521318 97.6160687,31.0933189 97.6160687,28.8729791 C97.6160687,26.5404414 96.1736017,25.8849687 94.3653977,25.8849687 L93.9352909,25.8849687 L93.9352909,31.8521318 Z M94.5175443,24.5179245 C97.267887,24.5179245 99.3189405,25.6841933 99.3189405,28.8847895 C99.3189405,31.914136 97.2093691,33.17784 94.5175443,33.17784 L92.2909371,33.17784 L92.2909371,24.5179245 L94.5175443,24.5179245 Z" id="Fill-14" fill="#FEFEFE"></path>
                            <path d="M56.537067,37.175042 C57.1895419,36.8532109 58.064385,36.6642458 58.9626352,36.6642458 C60.4636201,36.6642458 61.7451628,37.4732525 61.7451628,39.1739383 C61.7451628,40.2634401 61.2682416,41.2436965 59.7672567,42.7465594 C59.0767452,43.4286053 58.5764168,43.8242509 58.1463101,44.1342718 L58.1463101,44.160845 C58.8807101,44.1342718 59.8345523,44.125414 60.5572488,44.125414 L61.9207166,44.125414 L61.9207166,45.4776954 L56.3732168,45.4776954 L56.3732168,44.0368367 C58.9831165,41.7781134 60.0335133,40.6000342 60.0335133,39.3569982 C60.0335133,38.4151254 59.392742,38.0283375 58.5764168,38.0283375 C57.9824599,38.0283375 57.3533921,38.2173026 56.7009172,38.6129482 L56.537067,37.175042 Z" id="Fill-15" fill="#FEFEFE"></path>
                            <path d="M64.8234985,41.0703801 C64.8234985,43.2523363 65.3004196,44.3447907 66.1752627,44.3447907 C67.0237726,44.3447907 67.5036197,43.2523363 67.5036197,41.1560049 C67.5036197,39.0124322 67.0237726,37.9406459 66.1635591,37.9406459 C65.3004196,37.9406459 64.8234985,38.9976693 64.8234985,41.0703801 M69.1362699,41.1205739 C69.1362699,43.9255244 68.2731304,45.6262102 66.1752627,45.6262102 C64.0773949,45.6262102 63.1791446,43.9520976 63.1791446,41.2209616 C63.1791446,38.129611 64.1476164,36.6651315 66.2337806,36.6651315 C68.1560946,36.6651315 69.1362699,38.1561842 69.1362699,41.1205739" id="Fill-16" fill="#FEFEFE"></path>
                            <path d="M73.9824323,45.4762191 L72.3293008,45.4762191 L72.3293008,40.9469623 C72.3293008,40.2147226 72.349782,39.0336908 72.3761151,38.576041 L72.349782,38.576041 C72.1654506,38.7738638 71.7821581,39.1222682 71.360829,39.4824829 L70.9394999,39.8426975 L70.1378043,38.6734761 L72.5048546,36.813351 L73.9824323,36.813351 L73.9824323,45.4762191 Z" id="Fill-17" fill="#FEFEFE"></path>
                            <path d="M80.3231426,39.5940904 C80.3231426,38.6374546 79.7877035,37.8815943 79.0181928,37.8815943 C78.1316461,37.8815943 77.6898357,38.6728856 77.6898357,39.5675171 C77.6898357,40.5005322 78.1550533,41.1205739 79.0064892,41.1205739 C79.776,41.1205739 80.3231426,40.473959 80.3231426,39.5940904 L80.3231426,39.5940904 Z M76.6043281,43.9373347 C77.1075823,44.1853514 77.6430214,44.3241226 78.2018676,44.3241226 C79.6940749,44.3241226 80.4167713,43.2198579 80.451882,41.4040216 L80.4284749,41.4040216 C80.0100717,42.0506365 79.2756717,42.3724676 78.5412716,42.3724676 C77.060768,42.3724676 76.0688891,41.34497 76.0688891,39.6915255 C76.0688891,37.9672191 77.1631744,36.6651315 79.0298963,36.6651315 C81.0224319,36.6651315 82.0230885,38.129611 82.0230885,40.8341737 C82.0230885,43.9107615 80.6742502,45.6262102 78.2954963,45.6262102 C77.6079106,45.6262102 76.9437321,45.5140121 76.4551074,45.3132367 L76.6043281,43.9373347 Z" id="Fill-18" fill="#FEFEFE"></path>
                        </g>
                    </g>
                </g>
            </g>
        </g>
    </g>
</svg>