<?xml version="1.0" encoding="UTF-8"?>
<svg width="103px" height="68px" viewBox="0 0 103 68" version="1.1" xmlns="http://www.w3.org/2000/svg" xmlns:xlink="http://www.w3.org/1999/xlink">
    <!-- Generator: Sketch 62 (91390) - https://sketch.com -->
    <title>Reddot</title>
    <desc>Created with Sketch.</desc>
    <defs>
        <polygon id="path-1" points="0 94.1020361 112.630911 94.1020361 112.630911 0.665435827 0 0.665435827"></polygon>
    </defs>
    <g id="🔹__Symbols" stroke="none" stroke-width="1" fill="none" fill-rule="evenodd">
        <g id="UI-/-Footer" transform="translate(-890.000000, -331.000000)">
            <g id="Footer">
                <g id="Awards" transform="translate(265.000000, 115.000000)">
                    <g id="Reddot" transform="translate(615.000000, 189.006722)">
                        <path d="M28.1699639,30.0177429 C28.0135024,30.5366485 27.6597923,31.0965556 27.1529639,31.6631843 C26.6361059,32.2345181 25.9667982,32.8132456 25.1864964,33.3623982 C24.4028515,33.9135672 23.5122243,34.4338171 22.5614195,34.8855068 C21.6152953,35.3398852 20.6130053,35.7250314 19.6100467,36.0059932 C18.6124373,36.2849385 17.7131178,36.4348296 16.9428456,36.466421 C16.1792598,36.4980124 15.5447213,36.4133206 15.0693189,36.2278052 C14.5959225,36.043634 14.2776503,35.7586393 14.1399107,35.3862641 C14.002171,35.018594 14.0409521,34.5669042 14.2776503,34.0419493 L14.5377509,33.5593403 C15.3942775,32.2190584 17.1340763,30.9130566 18.5001059,30.1004183 L18.9200112,29.8611303 C18.9200112,29.8611303 18.070171,30.5137951 17.6509343,31.0481602 C17.4142361,31.3486146 17.2223367,31.610756 17.1126799,31.8648315 C17.005029,32.1215956 16.9943308,32.3393746 17.0738988,32.5134634 C17.1514609,32.6909129 17.3172834,32.8213115 17.5579935,32.9033147 C17.8013781,32.98599 18.1176444,33.0182536 18.4940882,32.9947281 C18.8745438,32.9698582 19.3158456,32.8925601 19.8019462,32.7514071 C20.2900527,32.610254 20.7761533,32.4207057 21.2388515,32.2022545 C21.6988751,31.982459 22.1341592,31.7297278 22.5186266,31.4642257 C22.9017568,31.1987235 23.2347391,30.9197782 23.4955083,30.6428493 C23.751597,30.3679369 23.9361414,30.0936967 24.0270763,29.8382769 C24.1153367,29.5862179 24.1019639,29.3738162 24.003674,29.2098097 C23.9020408,29.0458033 23.7195024,28.9268315 23.4634136,28.8575993 C23.2133426,28.7897114 22.8990822,28.8044988 22.5293249,28.8757475 C22.1662538,28.9443076 21.7443426,28.9752268 21.274958,29.1150356 C20.9740704,29.2037603 20.8002243,29.2716482 20.5113722,29.4047354 C21.3979876,28.9443076 21.9248751,28.7245121 22.8783544,28.4240577 C23.4935024,28.2318207 23.914745,28.1182261 24.4804136,28.0160582 C25.1390231,27.8964142 25.6939935,27.9051522 26.1927982,27.946826 C26.6962834,27.9891719 27.1228751,28.0967171 27.4558574,28.2640843 C27.7895083,28.4327958 28.0282124,28.6653623 28.1532479,28.9570786 C28.2816266,29.2501392 28.2929935,29.6057105 28.1699639,30.0177429" id="Fill-422" fill="#FFFFFF"></path>
                        <path d="M40.528687,52.1621702 C40.528687,52.1621702 40.3093734,52.7624067 40.1114562,53.1146172 C39.9289178,53.44263 39.567184,53.9097794 39.567184,53.9097794 L39.3692669,54.16856 C39.1479473,54.4522104 38.7801959,54.8803747 38.7801959,54.8803747 L38.2887462,55.4167563 C37.7819178,55.9443999 37.2028763,56.4545673 36.5636574,56.9351599 C35.9224325,57.4170967 35.2257107,57.86677 34.4861959,58.2714088 C33.7453438,58.6800805 32.965042,59.041029 32.1579947,59.3461885 C31.3536219,59.6513479 30.5258467,59.8953411 29.6907166,60.0727906 L29.204616,60.1675648 C27.7376219,60.4384442 26.2124562,60.4424772 24.7320893,60.2697327 L24.4546041,60.2307476 C24.0440598,60.1742864 23.8113734,60.1353013 23.4055095,60.048593 C22.9902846,59.9618846 22.3490598,59.7938453 22.3490598,59.7938453 L21.8201663,59.6143793 L21.6757402,59.5424584 C22.0495095,59.6923495 22.5382846,59.8281253 23.0217107,59.9040791 C23.5124917,59.9793607 24.0333615,60.023051 24.5836515,60.0270839 C25.1386219,60.035822 25.7216751,60.0075914 26.3328112,59.9450807 C26.9439473,59.8798814 27.5831663,59.7763692 28.2451189,59.6358883 C29.7615923,59.3092198 31.2640243,58.8077904 32.6915686,58.1678965 C34.1177757,57.5313635 35.460403,56.7597268 36.6632846,55.9054147 C37.8568053,55.0531191 38.9045627,54.1235255 39.752397,53.1589796 C40.0465982,52.8249174 40.2879769,52.5231187 40.5333675,52.148727 L40.528687,52.1621702" id="Fill-424" fill="#FFFFFF"></path>
                        <path d="M31.8207331,28.7204119 L32.8858751,29.1237064 L33.9329639,29.6083319 L34.3033899,29.801241 C34.5975911,29.9558372 34.8536799,30.1400084 35.0709876,30.3450164 C35.2862893,30.5540573 35.4621414,30.7886403 35.5918574,31.048093 C35.7249166,31.3088901 35.8091651,31.5965735 35.8412598,31.9091267 C35.8800408,32.2236963 35.8608272,32.5617915 35.7877686,32.9274451 C35.5938633,33.8906467 35.0348811,34.9324906 34.1803604,35.9864334 C33.3071178,37.0598688 32.1369994,38.1427144 30.742887,39.1664101 C29.3360704,40.2001882 27.7246503,41.1680949 25.9928751,41.9982092 C24.2564195,42.8289958 22.4236799,43.5152685 20.5849225,43.9911559 C18.9454195,44.4159594 17.457029,44.6310498 16.1598692,44.6626412 C14.8841059,44.6908718 13.8022479,44.5403085 12.9544136,44.2297718 C12.1199521,43.9252845 11.5068101,43.4688896 11.1537686,42.8814241 C10.8034018,42.308746 10.7004314,41.6090301 10.8702657,40.8064742 L10.9451533,40.4663625 L11.2487154,39.3317608 L11.6271651,38.2354721 L12.0189876,37.3078949 L12.3780467,36.5530621 L12.3158633,36.7056419 L12.3024905,36.7365611 C11.960816,37.4913939 11.8939521,38.1501081 12.0664609,38.6938835 C12.2469935,39.2537906 12.6836148,39.695398 13.3462361,39.9891308 C14.0175497,40.2909294 14.9208811,40.4435092 16.0154432,40.4240166 C17.125384,40.4031797 18.4272243,40.2089262 19.8768337,39.8170585 C21.3378101,39.4225021 22.7961118,38.8693165 24.1768515,38.2099301 C25.5562538,37.5478551 26.8473959,36.7856286 27.9767272,35.9723181 C29.0993722,35.16909 30.0501769,34.3194831 30.7709698,33.4765977 C31.4830704,32.6484998 31.9584728,31.8298121 32.1476976,31.0743072 C32.2426444,30.6824394 32.2593604,30.3282124 32.195171,30.0089377 C32.1390053,29.694368 32.0032716,29.4154227 31.8060231,29.1768068 C31.6081059,28.9375188 31.3473367,28.7351994 31.0283959,28.5745538 C30.8137627,28.4663364 30.5777331,28.3729066 30.3122834,28.2976249 L29.9231355,28.1934405 L30.3122834,28.2687222 C30.3122834,28.2687222 30.6954136,28.3614799 30.9387982,28.4327286 C31.2824787,28.5322079 31.8207331,28.7204119 31.8207331,28.7204119" id="Fill-426" fill="#FFFFFF"></path>
                        <path d="M38.8851722,33.488831 L39.6768408,34.4863126 L40.3956278,35.5584036 L40.7159059,36.1055397 L40.9606278,36.6412492 C41.0274917,36.8301254 41.0789769,37.0243789 41.1157521,37.2287148 C41.1525272,37.4323784 41.1719178,37.6454523 41.1765982,37.86592 C41.1806101,38.0870598 41.1672373,38.3176097 41.1398231,38.5542092 C40.9826929,39.783585 40.3775746,41.0983249 39.4033675,42.4251636 C38.4097698,43.7815773 37.0417343,45.1386631 35.3935391,46.4097127 C33.7286278,47.6989106 31.7949237,48.8845962 29.7081012,49.8901437 C27.6192728,50.8936747 25.3993911,51.6995914 23.1728231,52.227235 C21.585474,52.6009545 20.1117935,52.8046182 18.7825391,52.8530135 C17.4700006,52.8993924 16.3018882,52.7958802 15.3016041,52.5592808 C14.3180361,52.3267143 13.5009592,51.9630771 12.8664207,51.4871897 C12.2445864,51.0207125 11.7992728,50.44669 11.5518763,49.7799099 L11.300468,49.0512913 L10.9561189,47.8091444 L10.7127343,46.5555709 L10.6652609,46.2033604 L10.5943852,45.4969229 L10.5990657,45.4969229 C10.687326,46.1697525 10.9648112,46.7592345 11.4288467,47.2492373 C11.9497166,47.7983899 12.6945805,48.2231934 13.6407047,48.5021387 C14.6048822,48.785117 15.7750006,48.9182041 17.1169592,48.8785468 C18.4829888,48.8362009 20.0215272,48.6197662 21.6991426,48.2057173 C23.7993379,47.6847953 25.8935154,46.9118143 27.8686751,45.9647445 C29.8451722,45.0156582 31.681255,43.9025656 33.2665982,42.7041089 C34.8365627,41.5204398 36.1511071,40.2614889 37.1152846,39.0126205 C38.059403,37.7866054 38.6591722,36.5747056 38.8383675,35.4522027 C38.8851722,35.1356166 38.9018882,34.8371787 38.8831663,34.5535283 C38.8657817,34.2718943 38.8183083,34.0070643 38.7367343,33.7556775 C38.6571663,33.5083235 38.5495154,33.2757571 38.4117757,33.0579781 L38.1276041,32.6822421 L38.1276041,32.677537 L38.7862136,33.3732199" id="Fill-428" fill="#FFFFFF"></path>
                        <path d="M42.7873497,42.8199217 C42.8843024,43.8321907 42.9143911,44.4236892 42.7532491,45.4258759 C42.5058527,46.9785595 42.101326,47.8933657 41.2367757,49.1550052 C40.3541722,50.4415144 39.1325686,51.7152527 37.6568822,52.8975776 C36.1664858,54.0933456 34.4300302,55.1835849 32.5478112,56.0916695 C30.6655923,56.9950491 28.656332,57.7135854 26.6276811,58.1545206 C25.5759118,58.3837263 24.5776337,58.5289123 23.6395331,58.5954559 C22.7081189,58.6606551 21.8415627,58.647212 21.0452136,58.5652088 C20.2555509,58.4785005 19.5414444,58.3252486 18.9022254,58.1067974 C18.2723675,57.8930514 17.7214089,57.6161225 17.2567047,57.2854211 L16.2784858,56.5198338 L15.4627462,55.7797885 C15.4627462,55.7797885 14.9057698,55.235341 14.5848231,54.8589329 C14.3528053,54.586037 14.0171485,54.1363637 14.0171485,54.1363637 C14.3955982,54.5712495 14.8603024,54.9456412 15.4393438,55.2528171 C16.1186811,55.6157821 16.9324148,55.8839729 17.8658349,56.0526844 C18.8126278,56.2193795 19.8771012,56.2792015 21.0492254,56.2234124 C22.2327166,56.1649347 23.5191781,55.9874852 24.8912254,55.6762763 C27.0917166,55.1808963 29.2801722,54.3958164 31.3322254,53.4064007 C33.3842787,52.4196737 35.2818763,51.2386931 36.912687,49.9521838 C38.5234385,48.6818064 39.8593793,47.3166547 40.8215509,45.9494865 C41.7683438,44.6098768 42.3467166,43.2716114 42.4844562,42.0153493 L42.5098645,41.6174321 L42.4817817,41.2269086 L42.6455982,41.7975703 C42.6455982,41.7975703 42.7485686,42.4186437 42.7873497,42.8199217" id="Fill-430" fill="#FFFFFF"></path>
                        <polyline id="Fill-432" fill="#FFFFFF" points="11.4700349 93.8927263 12.4877036 93.8927263 13.5160704 90.3390302 13.5354609 90.3390302 14.5979284 93.8927263 15.615597 93.8927263 16.7603071 88.7688705 15.8288929 88.7688705 15.0238515 92.4825401 15.0044609 92.4825401 13.8905083 88.7688705 13.1610231 88.7688705 12.0490763 92.4825401 12.0270112 92.4825401 11.2226385 88.7688705 10.2912243 88.7688705"></polyline>
                        <mask id="mask-2" fill="white">
                            <use xlink:href="#path-1"></use>
                        </mask>
                        <g id="Clip-435"></g>
                        <path d="M18.2912899,93.8929952 L19.2574734,93.8929952 L19.2574734,88.7691393 L18.2912899,88.7691393 L18.2912899,93.8929952 Z M18.1950059,87.5626168 L19.3524201,87.5626168 L19.3524201,86.4649838 L18.1950059,86.4649838 L18.1950059,87.5626168 Z" id="Fill-434" fill="#FFFFFF" mask="url(#mask-2)"></path>
                        <path d="M21.1613562,93.8927263 L22.1275396,93.8927263 L22.1275396,91.7189693 C22.1275396,90.6959457 22.6825101,89.6198217 23.4735101,89.6198217 C24.1709006,89.6198217 24.1709006,90.1474653 24.1709006,91.0938629 L24.1709006,93.8927263 L25.137084,93.8927263 L25.137084,90.3390302 C25.137084,89.7058579 24.9411728,88.6505708 23.766374,88.6505708 C22.725303,88.6505708 22.3187704,89.4356506 22.1462615,89.8678478 L22.1275396,89.8678478 L22.1275396,88.7688705 L21.1613562,88.7688705" id="Fill-436" fill="#FFFFFF" mask="url(#mask-2)"></path>
                        <path d="M26.9221497,93.8927263 L27.8876645,93.8927263 L27.8876645,91.7189693 C27.8876645,90.6959457 28.4426349,89.6198217 29.2349722,89.6198217 C29.9316941,89.6198217 29.9316941,90.1474653 29.9316941,91.0938629 L29.9316941,93.8927263 L30.895203,93.8927263 L30.895203,90.3390302 C30.895203,89.7058579 30.7019663,88.6505708 29.5231556,88.6505708 C28.4860964,88.6505708 28.0795639,89.4356506 27.9077237,89.8678478 L27.8876645,89.8678478 L27.8876645,88.7688705 L26.9221497,88.7688705" id="Fill-437" fill="#FFFFFF" mask="url(#mask-2)"></path>
                        <path d="M36.1211521,93.0748452 C35.897158,93.1521433 35.5982763,93.2610328 35.1576432,93.2610328 C33.7655367,93.2610328 33.2834479,91.9140294 33.2834479,90.9562051 L36.2368266,90.9562051 L36.2368266,90.7068347 C36.2368266,89.5030008 35.6390633,88.6507052 34.3953947,88.6507052 C33.7434716,88.6507052 32.3192704,88.8879768 32.3192704,91.0859315 C32.3192704,93.0983707 33.3048444,94.0131769 34.8453888,94.0131769 C35.4023651,94.0131769 35.7032527,93.9372232 36.1211521,93.8404325 L36.1211521,93.0748452 Z M33.3262408,90.3116061 C33.3262408,90.0817283 33.5502349,89.405538 34.3439095,89.405538 C35.0814183,89.405538 35.2753237,89.9869541 35.2753237,90.3116061 L33.3262408,90.3116061 Z" id="Fill-438" fill="#FFFFFF" mask="url(#mask-2)"></path>
                        <path d="M37.6439107,93.8927263 L38.6074195,93.8927263 L38.6074195,91.7189693 C38.6074195,90.1474653 39.3348988,89.7058579 40.2041296,89.7058579 L40.2041296,88.6505708 C39.1971592,88.6505708 38.7672243,89.3953212 38.6294846,89.8006321 L38.6074195,89.8006321 L38.6074195,88.7688705 L37.6439107,88.7688705" id="Fill-439" fill="#FFFFFF" mask="url(#mask-2)"></path>
                        <path d="M10.7990556,82.4526074 L11.9544639,82.4526074 L11.9544639,79.8513582 C11.9544639,77.9699897 12.823026,77.4396575 13.864097,77.4396575 L13.864097,76.1773459 C12.6598781,76.1773459 12.1456947,77.0679544 11.9778663,77.5566129 L11.9544639,77.5566129 L11.9544639,76.3198432 L10.7990556,76.3198432" id="Fill-440" fill="#FFFFFF" mask="url(#mask-2)"></path>
                        <path d="M19.1714195,81.4752233 C18.9026266,81.5659645 18.5435675,81.6936744 18.0160112,81.6936744 C16.3511,81.6936744 15.7747331,80.0845296 15.7747331,78.9364848 L19.3111651,78.9364848 L19.3111651,78.6400634 C19.3111651,77.1976136 18.5930467,76.1772787 17.1066621,76.1772787 C16.3256917,76.1772787 14.6193249,76.4622734 14.6193249,79.0924253 C14.6193249,81.5014374 15.8001414,82.5957097 17.6462538,82.5957097 C18.3108811,82.5957097 18.6699402,82.5069849 19.1714195,82.3900295 L19.1714195,81.4752233 Z M15.8242124,78.1641759 C15.8242124,77.8919522 16.0930053,77.0806582 17.0418041,77.0806582 C17.9284195,77.0806582 18.1557568,77.7776854 18.1557568,78.1641759 L15.8242124,78.1641759 Z" id="Fill-441" fill="#FFFFFF" mask="url(#mask-2)"></path>
                        <path d="M24.1039698,82.4526074 L25.2600467,82.4526074 L25.2600467,73.5626536 L24.1039698,73.5626536 L24.1039698,77.1694502 L24.0785615,77.1694502 C23.9361414,76.8085017 23.4634136,76.1773459 22.4497568,76.1773459 C21.0670112,76.1773459 20.298745,77.4531006 20.298745,79.4897375 C20.298745,81.2413797 20.8991828,82.5951047 22.3875734,82.5951047 C23.4500408,82.5951047 23.9508515,81.8604367 24.0785615,81.5122592 L24.1039698,81.5122592 L24.1039698,82.4526074 Z M21.5811947,79.3862253 C21.5811947,78.0976996 21.8733899,77.0787089 22.7727095,77.0787089 C23.7963959,77.0787089 24.1039698,78.3053962 24.1039698,79.3734543 C24.1039698,80.3917728 23.7195024,81.6937417 22.7854136,81.6937417 C21.7075675,81.6937417 21.5811947,80.315819 21.5811947,79.3862253 L21.5811947,79.3862253 Z" id="Fill-442" fill="#FFFFFF" mask="url(#mask-2)"></path>
                        <path d="M30.5063225,82.4526074 L31.6617308,82.4526074 L31.6617308,73.5626536 L30.5063225,73.5626536 L30.5063225,77.1694502 L30.4802456,77.1694502 C30.3384941,76.8085017 29.8650976,76.1773459 28.8514408,76.1773459 C27.4686953,76.1773459 26.7010976,77.4531006 26.7010976,79.4897375 C26.7010976,81.2413797 27.3008669,82.5951047 28.7879201,82.5951047 C29.8517249,82.5951047 30.3518669,81.8604367 30.4802456,81.5122592 L30.5063225,81.5122592 L30.5063225,82.4526074 Z M27.9828787,79.3862253 C27.9828787,78.0976996 28.275074,77.0787089 29.1750621,77.0787089 C30.1987485,77.0787089 30.5063225,78.3053962 30.5063225,79.3734543 C30.5063225,80.3917728 30.1211864,81.6937417 29.1870976,81.6937417 C28.1099201,81.6937417 27.9828787,80.315819 27.9828787,79.3862253 L27.9828787,79.3862253 Z" id="Fill-443" fill="#FFFFFF" mask="url(#mask-2)"></path>
                        <path d="M35.8044846,82.5953736 C37.6372243,82.5953736 38.4957568,81.3196189 38.4957568,79.3864942 C38.4957568,77.4291718 37.6372243,76.1769426 35.8044846,76.1769426 C33.9590408,76.1769426 33.0985024,77.4291718 33.0985024,79.3864942 C33.0985024,81.3196189 33.9590408,82.5953736 35.8044846,82.5953736 M34.3802834,79.3864942 C34.3802834,78.3957342 34.5354077,77.0789778 35.8044846,77.0789778 C37.0454787,77.0789778 37.2133071,78.3957342 37.2133071,79.3864942 C37.2133071,80.3658275 37.0454787,81.6940105 35.8044846,81.6940105 C34.5354077,81.6940105 34.3802834,80.3658275 34.3802834,79.3864942" id="Fill-444" fill="#FFFFFF" mask="url(#mask-2)"></path>
                        <path d="M43.1771663,81.602866 C43.0093379,81.6546221 42.7686278,81.6936072 42.5613497,81.6936072 C41.6640361,81.6936072 41.5871426,81.0490083 41.5871426,80.4958227 L41.5871426,77.221744 L43.2801367,77.221744 L43.2801367,76.3197088 L41.5871426,76.3197088 L41.5871426,74.1573784 L40.4337402,74.8752426 L40.4337402,76.3197088 L39.3438586,76.3197088 L39.3438586,77.221744 L40.4337402,77.221744 L40.4337402,81.1007644 C40.4337402,81.9382725 40.793468,82.5956425 42.2671485,82.5956425 C42.5727166,82.5956425 42.8822964,82.5694283 43.1771663,82.5042291" id="Fill-445" fill="#FFFFFF" mask="url(#mask-2)"></path>
                        <path d="M50.8821615,82.4526074 L52.0382385,82.4526074 L52.0382385,73.5626536 L50.8821615,73.5626536 L50.8821615,77.1694502 L50.8567533,77.1694502 C50.7143331,76.8085017 50.2416053,76.1773459 49.2279485,76.1773459 C47.845203,76.1773459 47.0776053,77.4531006 47.0776053,79.4897375 C47.0776053,81.2413797 47.6773746,82.5951047 49.1637592,82.5951047 C50.2282325,82.5951047 50.7277059,81.8604367 50.8567533,81.5122592 L50.8821615,81.5122592 L50.8821615,82.4526074 Z M48.3593864,79.3862253 C48.3593864,78.0976996 48.6515817,77.0787089 49.5509012,77.0787089 C50.5745876,77.0787089 50.8821615,78.3053962 50.8821615,79.3734543 C50.8821615,80.3917728 50.4976941,81.6937417 49.5636053,81.6937417 C48.4857592,81.6937417 48.3593864,80.315819 48.3593864,79.3862253 L48.3593864,79.3862253 Z" id="Fill-446" fill="#FFFFFF" mask="url(#mask-2)"></path>
                        <path d="M58.026971,81.4752233 C57.7581781,81.5659645 57.3991189,81.6936744 56.8708941,81.6936744 C55.2059828,81.6936744 54.6302846,80.0845296 54.6302846,78.9364848 L58.1667166,78.9364848 L58.1667166,78.6400634 C58.1667166,77.1976136 57.4506041,76.1772787 55.961545,76.1772787 C55.1805746,76.1772787 53.4742077,76.4622734 53.4742077,79.0924253 C53.4742077,81.5014374 54.6556929,82.5957097 56.4991308,82.5957097 C57.1664325,82.5957097 57.5254917,82.5069849 58.026971,82.3900295 L58.026971,81.4752233 Z M54.6790953,78.1641759 C54.6790953,77.8919522 54.9485568,77.0806582 55.8986929,77.0806582 C56.7833024,77.0806582 57.0133142,77.7776854 57.0133142,78.1641759 L54.6790953,78.1641759 Z" id="Fill-447" fill="#FFFFFF" mask="url(#mask-2)"></path>
                        <path d="M61.1546639,78.6401978 C60.7588296,78.3955325 60.2680485,78.1643104 60.2680485,77.7381626 C60.2680485,77.3516721 60.7695278,77.0807926 61.2683325,77.0807926 C61.9356343,77.0807926 62.501303,77.3664595 62.6671254,77.4424133 L62.6671254,76.3978807 C62.371587,76.3454524 61.8961846,76.181446 61.2810367,76.181446 C60.0146343,76.181446 59.1173207,76.7843712 59.1173207,77.8941031 C59.1173207,78.7954662 59.7819479,79.2068265 60.3349124,79.555004 L60.9219775,79.9159526 C61.3358651,80.1861598 61.8961846,80.4462847 61.8961846,80.908729 C61.8961846,81.5398848 61.2061491,81.6938089 60.6551905,81.6938089 C60.0146343,81.6938089 59.2309893,81.3866329 59.1173207,81.3321882 L59.1173207,82.3531953 C59.3861136,82.4291491 59.9236994,82.595172 60.7588296,82.595172 C62.128871,82.595172 63.0522615,82.0292154 63.0522615,80.742034 C63.0522615,79.7237155 62.2819893,79.3210933 61.6407645,78.9231761" id="Fill-448" fill="#FFFFFF" mask="url(#mask-2)"></path>
                        <path d="M64.4501183,82.4528762 L65.6035207,82.4528762 L65.6035207,76.3201121 L64.4501183,76.3201121 L64.4501183,82.4528762 Z M64.3337751,74.8796788 L65.7165207,74.8796788 L65.7165207,73.5629224 L64.3337751,73.5629224 L64.3337751,74.8796788 Z" id="Fill-449" fill="#FFFFFF" mask="url(#mask-2)"></path>
                        <path d="M72.1558491,76.3198432 L71.0004408,76.3198432 L71.0004408,77.1694502 L70.9743639,77.1694502 C70.8479911,76.8474868 70.3445059,76.1773459 69.3723047,76.1773459 C67.8210621,76.1773459 67.1925414,77.6480263 67.1925414,79.3862253 C67.1925414,80.9584015 67.6940207,82.4526074 69.2947426,82.4526074 C70.3445059,82.4526074 70.8586893,81.7454978 70.9743639,81.4100912 L71.0004408,81.4100912 L71.0004408,82.3618661 C71.0004408,83.0582212 71.0004408,84.308434 69.2171805,84.308434 C68.4749911,84.308434 67.8364408,83.9992415 67.4613343,83.8197755 L67.4613343,84.9913459 C67.7328018,85.0565451 68.3867308,85.2118135 69.3355296,85.2118135 C71.1535592,85.2118135 72.1558491,84.4771455 72.1558491,82.6972727 L72.1558491,76.3198432 Z M68.4749911,79.3600112 C68.4749911,78.432434 68.6561923,77.0787089 69.6685118,77.0787089 C70.6801627,77.0787089 71.0004408,78.3181672 71.0004408,79.2437279 C71.0004408,80.2230613 70.6387071,81.5485557 69.6538018,81.5485557 C68.6281095,81.5485557 68.4749911,80.1733216 68.4749911,79.3600112 L68.4749911,79.3600112 Z" id="Fill-450" fill="#FFFFFF" mask="url(#mask-2)"></path>
                        <path d="M74.029242,82.4526074 L75.1853189,82.4526074 L75.1853189,79.8513582 C75.1853189,78.6273596 75.8499462,77.3381617 76.7980763,77.3381617 C77.630532,77.3381617 77.630532,77.9699897 77.630532,79.103247 L77.630532,82.4526074 L78.7859402,82.4526074 L78.7859402,78.2012118 C78.7859402,77.4396575 78.5559284,76.1773459 77.1444314,76.1773459 C75.9034373,76.1773459 75.4126562,77.1197105 75.2087213,77.6345831 L75.1853189,77.6345831 L75.1853189,76.3198432 L74.029242,76.3198432" id="Fill-451" fill="#FFFFFF" mask="url(#mask-2)"></path>
                        <path d="M86.6804947,82.4526074 L87.8365716,82.4526074 L87.8365716,78.2401969 C87.8365716,77.6863392 87.8365716,76.1773459 85.8353349,76.1773459 C84.1296367,76.1773459 83.5526012,77.0424124 83.5526012,78.0197293 L84.7708615,78.0197293 C84.7708615,77.5310709 85.0523586,77.0787089 85.7450686,77.0787089 C86.1816899,77.0787089 86.5775243,77.2756511 86.6804947,77.8637888 L86.6804947,78.936552 C85.1299207,78.936552 83.3486663,79.321026 83.3486663,80.9456305 C83.3486663,81.8994218 83.9377373,82.5951047 85.0797728,82.5951047 C86.0138615,82.5951047 86.501968,82.0291482 86.6550864,81.6937417 L86.6804947,81.6937417 L86.6804947,82.4526074 Z M86.6804947,79.7102052 L86.6804947,80.0570384 C86.6804947,80.7789354 86.0914237,81.6937417 85.2977491,81.6937417 C84.9487195,81.6937417 84.631116,81.3845493 84.631116,80.9086618 C84.631116,80.1215655 85.5404651,79.7102052 86.4504828,79.7102052 L86.6804947,79.7102052 Z" id="Fill-452" fill="#FFFFFF" mask="url(#mask-2)"></path>
                        <polyline id="Fill-453" fill="#FFFFFF" mask="url(#mask-2)" points="90.5290473 82.4526074 91.7466391 82.4526074 92.9769349 78.2012118 93.0030118 78.2012118 94.2727574 82.4526074 95.4896805 82.4526074 96.8623964 76.3198432 95.7464379 76.3198432 94.7842663 80.7661644 94.7581893 80.7661644 93.426929 76.3198432 92.5530178 76.3198432 91.2217574 80.7661644 91.1963491 80.7661644 90.2348462 76.3198432 89.1202249 76.3198432"></polyline>
                        <path d="M101.115609,82.4526074 L102.271018,82.4526074 L102.271018,78.2401969 C102.271018,77.6863392 102.271018,76.1773459 100.269781,76.1773459 C98.5660888,76.1773459 97.9870473,77.0424124 97.9870473,78.0197293 L99.2073136,78.0197293 C99.2073136,77.5310709 99.4888107,77.0787089 100.180183,77.0787089 C100.616136,77.0787089 101.012639,77.2756511 101.115609,77.8637888 L101.115609,78.936552 C99.5643669,78.936552 97.7831124,79.321026 97.7831124,80.9456305 C97.7831124,81.8994218 98.3721834,82.5951047 99.5148876,82.5951047 C100.448308,82.5951047 100.936414,82.0291482 101.089533,81.6937417 L101.115609,81.6937417 L101.115609,82.4526074 Z M101.115609,79.7102052 L101.115609,80.0570384 C101.115609,80.7789354 100.52587,81.6937417 99.7321953,81.6937417 C99.3838343,81.6937417 99.0655621,81.3845493 99.0655621,80.9086618 C99.0655621,80.1215655 99.9755799,79.7102052 100.884929,79.7102052 L101.115609,79.7102052 Z" id="Fill-454" fill="#FFFFFF" mask="url(#mask-2)"></path>
                        <path d="M103.978922,82.4526074 L105.131656,82.4526074 L105.131656,79.8513582 C105.131656,77.9699897 106.002893,77.4396575 107.041958,77.4396575 L107.041958,76.1773459 C105.83707,76.1773459 105.323556,77.0679544 105.155727,77.5566129 L105.131656,77.5566129 L105.131656,76.3198432 L103.978922,76.3198432" id="Fill-455" fill="#FFFFFF" mask="url(#mask-2)"></path>
                        <path d="M111.475637,82.4526074 L112.631045,82.4526074 L112.631045,73.5626536 L111.475637,73.5626536 L111.475637,77.1694502 L111.44956,77.1694502 C111.307808,76.8085017 110.834412,76.1773459 109.821424,76.1773459 C108.438009,76.1773459 107.670412,77.4531006 107.670412,79.4897375 C107.670412,81.2413797 108.270181,82.5951047 109.757234,82.5951047 C110.821039,82.5951047 111.322518,81.8604367 111.44956,81.5122592 L111.475637,81.5122592 L111.475637,82.4526074 Z M108.952862,79.3862253 C108.952862,78.0976996 109.245057,77.0787089 110.144376,77.0787089 C111.168063,77.0787089 111.475637,78.3053962 111.475637,79.3734543 C111.475637,80.3917728 111.090501,81.6937417 110.156412,81.6937417 C109.079234,81.6937417 108.952862,80.315819 108.952862,79.3862253 L108.952862,79.3862253 Z" id="Fill-456" fill="#FFFFFF" mask="url(#mask-2)"></path>
                        <path d="M44.2786822,93.9866267 L44.2786822,93.4179816 L45.0008124,92.7128884 C46.739274,91.0506432 47.5242562,90.1660841 47.5342858,89.1343224 C47.5342858,88.4399838 47.1992976,87.7980735 46.1843036,87.7980735 C45.5671497,87.7980735 45.0536349,88.1139875 44.7387059,88.3768011 L44.445842,87.7248084 C44.9172325,87.3242026 45.5872089,87.0297976 46.3721911,87.0297976 C47.8385166,87.0297976 48.4556704,88.0400502 48.4556704,89.0180392 C48.4556704,90.2816951 47.5456527,91.3027022 46.1107533,92.6913794 L45.5671497,93.1968418 L45.5671497,93.2176787 L48.6241675,93.2176787 L48.6241675,93.9866267 L44.2786822,93.9866267 Z" id="Fill-457" fill="#FFFFFF" mask="url(#mask-2)"></path>
                        <path d="M50.4796408,90.5969369 C50.4796408,92.3761376 51.0232444,93.3863902 51.8617178,93.3863902 C52.8038302,93.3863902 53.2531556,92.2813634 53.2531556,90.5344263 C53.2531556,88.850672 52.824558,87.7449731 51.8717473,87.7449731 C51.0653686,87.7449731 50.4796408,88.7343888 50.4796408,90.5969369 M54.1752089,90.4927526 C54.1752089,92.8184172 53.3166763,94.1022378 51.8088953,94.1022378 C50.4796408,94.1022378 49.5783154,92.8500086 49.5582562,90.5868546 C49.5582562,88.2927814 50.5418243,87.0297976 51.9239012,87.0297976 C53.3588006,87.0297976 54.1752089,88.3136183 54.1752089,90.4927526" id="Fill-458" fill="#FFFFFF" mask="url(#mask-2)"></path>
                        <polygon id="Fill-459" fill="#FFFFFF" mask="url(#mask-2)" points="56.606113 88.0080555 56.5860538 88.0080555 55.4025627 88.6499658 55.2247047 87.9455449 56.7110893 87.1450054 57.4960716 87.1450054 57.4960716 93.9868956 56.606113 93.9868956"></polygon>
                        <path d="M60.0112911,89.3976737 C60.0112911,90.2506415 60.5241373,90.8495337 61.3198178,90.8495337 C61.9376402,90.8495337 62.419729,90.5450464 62.6597704,90.1343582 C62.7125929,90.0503385 62.7440189,89.9448098 62.7440189,89.7976074 C62.7440189,88.6293978 62.314084,87.7347563 61.3512438,87.7347563 C60.5655929,87.7347563 60.0112911,88.4290949 60.0112911,89.3976737 L60.0112911,89.3976737 Z M59.6756343,93.3338275 C59.8755574,93.3546643 60.1055692,93.3338275 60.4191609,93.3029082 C60.9534036,93.2289709 61.4555515,93.0078311 61.8426935,92.6388167 C62.2940249,92.2288007 62.6176462,91.6285641 62.7440189,90.8179423 L62.7125929,90.8179423 C62.3361491,91.2817309 61.7905396,91.555299 61.1112024,91.555299 C59.8862556,91.555299 59.1006047,90.6290661 59.1006047,89.4608565 C59.1006047,88.1662814 60.0320189,87.0296632 61.4241254,87.0296632 C62.8169006,87.0296632 63.6754331,88.1662814 63.6754331,89.9132184 C63.6754331,91.4181789 63.1732852,92.4701052 62.5033089,93.1234422 C61.9790959,93.6396591 61.2569657,93.9542287 60.5241373,94.0382484 C60.1891491,94.0913488 59.8956166,94.1021034 59.6756343,94.0913488 L59.6756343,93.3338275 Z" id="Fill-460" fill="#FFFFFF" mask="url(#mask-2)"></path>
                    </g>
                </g>
            </g>
        </g>
    </g>
</svg>