<svg xmlns="http://www.w3.org/2000/svg" viewBox="0 0 480.45 480.93"><defs><style>.cls-1{fill:#fff;}</style></defs><g id="Layer_2" data-name="Layer 2"><g id="Layer_1-2" data-name="Layer 1"><polygon class="cls-1" points="111.23 153.16 111.23 110.54 0 110.54 0 153.16 25.52 153.16 25.52 244.32 0 244.32 0 286.93 111.23 286.93 111.23 244.32 85.71 244.32 85.71 153.16 111.23 153.16"/><path class="cls-1" d="M234,178.22c-6.87-2-42.25-12.12-48.37-14.12s-11.13-4.88-11.13-8.5,5.63-7.5,17-7.5c35.88,0,53.11,22.12,53.11,22.12s1.94,2.59,2.59,3.52h34.61V113.37H244.64v11c-2.84-2-23.79-15.64-56.28-15.64-42.88,0-66.75,22.25-66.75,55.5s30.12,47,38.5,50.5,41.12,12.75,55.12,17.13,19.13,7.5,19.13,9.75-6.13,8.12-23.63,8.12c-30.48,0-46.18-18-48.94-21.45v0c-.87-1.18-1.9-2.56-2.25-3.09s-1.34-2-2-2.87H122.94v64.46h38.85V273.28c4.53,3,27.67,17.44,55.44,17.44,31,0,70.5-13.5,70.5-55.62S240.86,180.22,234,178.22Z"/><path class="cls-1" d="M386.39,108.13c-51.68,0-94.06,25.84-94.06,91.79s46,90.67,94.29,90.67,93.83-24.48,93.83-90S434.9,108.13,386.39,108.13Zm.46,138.49c-17.68,0-29-4.08-29-46.92s8.39-47.37,29.69-47.37c12.92,0,28.56.9,28.56,46S404.53,246.62,386.85,246.62Z"/><path class="cls-1" d="M74.12,91.09a194.38,194.38,0,0,1,42.28-45,170.89,170.89,0,0,0,21.06,13.29c-12.4,13.82-23.51,29.13-25.35,31.7h7.44C124,85.07,133.25,73,143,62.23A193.47,193.47,0,0,0,176.75,75c-3.14,6.67-5.52,12.5-6.91,16.09h6.46c1.49-3.7,3.66-8.85,6.38-14.55a215.53,215.53,0,0,0,47,6v8.5h6V82.62a216.58,216.58,0,0,0,46.72-5.37c2.55,5.41,4.61,10.3,6,13.84h6.46c-1.34-3.45-3.58-9-6.54-15.3a194.34,194.34,0,0,0,34.4-12.44c9.36,10.44,18.12,21.93,22.43,27.74h7.44c-1.78-2.49-12.32-17-24.29-30.51A171.9,171.9,0,0,0,351.65,46.1a194.59,194.59,0,0,1,42.28,45h7.22a198.86,198.86,0,0,0-334.25,0ZM179.43,69.52a188.08,188.08,0,0,1-32.16-11.88c1.38-1.43,2.76-2.82,4.12-4.14,13.91-13.41,36.78-28.13,41.8-31.3a74.53,74.53,0,0,0,13.23,5.62c-3.67,4.81-10.87,14.58-18.71,27C184.65,59.6,181.87,64.67,179.43,69.52Zm50.23,7.07A209.77,209.77,0,0,1,185.4,71c2.22-4.34,4.7-8.81,7.38-13,9-14.26,17.19-25,19.9-28.46a92.52,92.52,0,0,0,17,2.34V76.59Zm6,0V31.94a93.68,93.68,0,0,0,16.85-1.8c3.11,4,10.87,14.34,19.43,27.85,2.82,4.45,5.42,9.16,7.73,13.72A211.19,211.19,0,0,1,235.66,76.62Zm50-6.33A177.39,177.39,0,0,0,277,54.78C269.57,43,262.71,33.65,258.89,28.6A76.51,76.51,0,0,0,273,23.14c7,4.51,27.49,18,40.32,30.36,1.7,1.65,3.42,3.4,5.15,5.22A189.8,189.8,0,0,1,285.68,70.29Zm60.94-27.94A167.11,167.11,0,0,1,324.15,56c-2.22-2.37-4.45-4.66-6.66-6.79-12-11.58-29.87-23.72-38.62-29.42A55,55,0,0,0,287,13.39,192.06,192.06,0,0,1,346.62,42.35ZM234,6a192.6,192.6,0,0,1,46,5.55C268.82,20.64,252.05,26,234,26s-34.83-5.31-46-14.41A192.33,192.33,0,0,1,234,6Zm-53,7.39a53.54,53.54,0,0,0,6.47,5.29c-7.93,5.11-27.47,18.13-40.3,30.5-1.85,1.79-3.71,3.68-5.57,5.65a166.67,166.67,0,0,1-20.24-12.48A192.27,192.27,0,0,1,181.06,13.39Z"/><path class="cls-1" d="M393.94,306.92a194.4,194.4,0,0,1-41.25,44.18,171.84,171.84,0,0,0-24.36-15.27c10.39-11.71,19.69-24.19,23.13-28.91H344c-4.6,6.15-12.67,16.58-21.24,26.15a195,195,0,0,0-34.41-12.45c2.54-5.44,4.55-10.26,5.92-13.7h-6.48c-1.38,3.35-3.21,7.61-5.4,12.25a217.06,217.06,0,0,0-46.72-5.37v-6.88h-6v6.91a215.29,215.29,0,0,0-47,6.05c-2.35-4.92-4.29-9.44-5.73-13h-6.48c1.43,3.6,3.56,8.73,6.28,14.49A193,193,0,0,0,143,334.18c-8.94-9.86-17.46-20.87-22.25-27.26h-7.47c3.56,4.87,13.39,18.06,24.2,30.11a172.29,172.29,0,0,0-22.11,14.07,194.58,194.58,0,0,1-41.24-44.18H66.9a198.86,198.86,0,0,0,334.25,0ZM285.68,326.13a188.75,188.75,0,0,1,32.81,11.56c-1.73,1.82-3.46,3.58-5.16,5.23-12.79,12.33-33.17,25.78-40.26,30.33a76.12,76.12,0,0,0-14.15-5.47c3.83-5.06,10.67-14.43,18.09-26.14A174.82,174.82,0,0,0,285.68,326.13Zm-50-6.33a211,211,0,0,1,44,4.91c-2.31,4.55-4.91,9.27-7.73,13.72-8.54,13.5-16.3,23.81-19.41,27.84a93.53,93.53,0,0,0-16.87-1.78V319.8Zm-6,0v44.72a92.26,92.26,0,0,0-17,2.32c-2.74-3.51-10.86-14.19-19.88-28.44-2.68-4.23-5.16-8.7-7.38-13.05A210.25,210.25,0,0,1,229.66,319.83Zm-50.23,7.07c2.44,4.85,5.23,9.92,8.28,14.74,7.84,12.38,15,22.13,18.7,26.95a73.52,73.52,0,0,0-13.23,5.63c-5-3.18-27.89-17.9-41.78-31.3-1.37-1.32-2.75-2.71-4.13-4.14A186.93,186.93,0,0,1,179.43,326.9Zm-59.09,28a165.21,165.21,0,0,1,21.31-13.28c1.86,2,3.73,3.86,5.58,5.65,12.83,12.37,32.36,25.39,40.3,30.49a53.22,53.22,0,0,0-7.7,6.52A192.49,192.49,0,0,1,120.34,354.87ZM234,392a192.71,192.71,0,0,1-47.43-5.91c11.08-9.74,28.69-15.65,47.43-15.65s36.35,5.91,47.43,15.65A192.71,192.71,0,0,1,234,392Zm54.19-7.76a54.11,54.11,0,0,0-9.3-7.62c8.76-5.72,26.6-17.84,38.58-29.39,2.21-2.13,4.44-4.43,6.66-6.8a167.46,167.46,0,0,1,23.56,14.42A192.34,192.34,0,0,1,288.21,384.25Z"/><path class="cls-1" d="M11.44,461.64c.27,5,2.19,8.4,5.75,10.29a12.72,12.72,0,0,0,6.2,1.5,13.93,13.93,0,0,0,11-5.37q4.54-5.37,6.45-21.81a16.67,16.67,0,0,1-7.42,6.67,23.69,23.69,0,0,1-9.52,1.93q-10.35,0-16.37-6.44t-6-16.58a26.51,26.51,0,0,1,6-17.12q5.94-7.38,17.54-7.38,15.63,0,21.58,14.08,3.3,7.74,3.3,19.37a63.83,63.83,0,0,1-3.95,23.27q-6.54,16.88-22.18,16.88-10.5,0-15.94-5.5a18.79,18.79,0,0,1-5.45-13.79Zm23.41-18.21q4.42-3.51,4.43-12.3,0-7.87-4-11.74a13.88,13.88,0,0,0-10.11-3.87,13.22,13.22,0,0,0-10.47,4.41q-3.88,4.43-3.88,11.8,0,7,3.4,11.11T25.09,447A15.27,15.27,0,0,0,34.85,443.43Z"/><path class="cls-1" d="M102.54,418.87q4.78,8.83,4.79,24.23,0,14.59-4.34,24.14-6.3,13.69-20.59,13.69-12.9,0-19.19-11.19Q58,460.4,58,444.65q0-12.19,3.15-20.94,5.9-16.27,21.34-16.28Q96.34,407.42,102.54,418.87Zm-9.05,47.67q4.16-6.19,4.15-23.09,0-12.19-3-20.06T83,415.52q-8,0-11.64,7.47t-3.68,22q0,11,2.35,17.59,3.6,10.14,12.31,10.14C87,472.73,90.71,470.67,93.49,466.54Z"/><path class="cls-1" d="M159.45,418.87q4.8,8.83,4.8,24.23,0,14.59-4.35,24.14-6.3,13.69-20.59,13.69-12.89,0-19.18-11.19-5.25-9.35-5.25-25.09,0-12.19,3.15-20.94,5.89-16.27,21.33-16.28Q153.25,407.42,159.45,418.87Zm-9,47.67q4.15-6.19,4.15-23.09,0-12.19-3-20.06t-11.66-7.87q-8,0-11.64,7.47t-3.68,22q0,11,2.36,17.59,3.6,10.14,12.31,10.14Q146.25,472.73,150.4,466.54Z"/><path class="cls-1" d="M178.39,428.31v-6.89c6.5-.64,11-1.69,13.59-3.18s4.48-5,5.75-10.52h7.09V479h-9.59V428.31Z"/><path class="cls-1" d="M236.85,426.16H247.3v10.9H236.85Zm0,41.93H247.3V479H236.85Z"/><path class="cls-1" d="M261,462.89q3.33-6.84,13-12.44l9.59-5.55a45,45,0,0,0,9.05-6.4,13.18,13.18,0,0,0,4.1-9.51q0-6.25-3.75-9.94t-10-3.68q-9.24,0-12.79,7-1.89,3.75-2.1,10.42h-9.14q.15-9.35,3.45-15.24,5.84-10.4,20.63-10.39,12.3,0,18,6.64a22.23,22.23,0,0,1,5.67,14.79,20.1,20.1,0,0,1-6.05,14.69q-3.49,3.56-12.54,8.6l-6.85,3.8a44.45,44.45,0,0,0-7.69,5.14,18.81,18.81,0,0,0-6.3,9.65h39.08V479H257.14A41.77,41.77,0,0,1,261,462.89Z"/><path class="cls-1" d="M358.63,418.87q4.78,8.83,4.79,24.23,0,14.59-4.34,24.14-6.3,13.69-20.59,13.69-12.9,0-19.19-11.19-5.25-9.35-5.25-25.09,0-12.19,3.15-20.94,5.9-16.27,21.34-16.28Q352.43,407.42,358.63,418.87Zm-9.06,47.67q4.15-6.19,4.16-23.09,0-12.19-3-20.06t-11.66-7.87q-7.95,0-11.63,7.47t-3.68,22q0,11,2.35,17.59,3.6,10.14,12.31,10.14C343.09,472.73,346.8,470.67,349.57,466.54Z"/><path class="cls-1" d="M377.56,428.31v-6.89c6.5-.64,11-1.69,13.6-3.18s4.48-5,5.74-10.52H404V479h-9.6V428.31Z"/><path class="cls-1" d="M437.33,460.74q.9,7.69,7.14,10.65a17.25,17.25,0,0,0,7.4,1.5q8,0,11.84-5.1a18.28,18.28,0,0,0,3.85-11.29q0-7.5-4.57-11.6a15.89,15.89,0,0,0-11-4.1,16.49,16.49,0,0,0-8,1.8,17,17,0,0,0-5.67,5l-7.8-.45L436,408.63H473.2v8.69H442.77l-3,19.89a22.17,22.17,0,0,1,4.75-2.85,24.12,24.12,0,0,1,9.25-1.65,23.67,23.67,0,0,1,16.69,6.35,21,21,0,0,1,6.84,16.09A27.63,27.63,0,0,1,471,473q-6.27,7.74-20,7.74a25.51,25.51,0,0,1-15.47-4.92q-6.72-4.92-7.52-15.12Z"/></g></g></svg>