<?xml version="1.0" encoding="UTF-8"?>
<svg width="81px" height="65px" viewBox="0 0 81 65" version="1.1" xmlns="http://www.w3.org/2000/svg" xmlns:xlink="http://www.w3.org/1999/xlink">
    <!-- Generator: Sketch 62 (91390) - https://sketch.com -->
    <title>MADE_IN_LUX</title>
    <desc>Created with Sketch.</desc>
    <defs>
        <polygon id="path-1" points="0 64.686747 79.7511826 64.686747 79.7511826 0.338851057 0 0.338851057"></polygon>
    </defs>
    <g id="🔹__Symbols" stroke="none" stroke-width="1" fill="none" fill-rule="evenodd">
        <g id="UI-/-Footer" transform="translate(-342.000000, -333.000000)">
            <g id="Footer">
                <g id="Awards" transform="translate(265.000000, 115.000000)">
                    <g id="MADE_IN_LUX" transform="translate(77.000000, 218.000000)">
                        <polygon id="Fill-1" fill="#FFFFFF" points="17.0617129 44.4423408 19.9467834 50.5528702 22.8419946 44.4423408 24.454389 52.1398393 23.5467834 52.1398393 22.522558 47.2160464 22.5022763 47.2160464 19.9467834 52.4423408 17.3963608 47.2160464 17.3760791 47.2160464 16.3569242 52.1398393 15.454389 52.1398393"></polygon>
                        <path d="M28.9789332,46.4240369 L27.6633651,49.4844396 L30.2650482,49.4844396 L28.9789332,46.4240369 Z M27.3197466,50.2751657 L26.3919766,52.4423408 L25.454389,52.4423408 L29.0034773,44.4423408 L32.454389,52.4423408 L31.5118925,52.4423408 L30.598849,50.2751657 L27.3197466,50.2751657 Z" id="Fill-2" fill="#FFFFFF"></path>
                        <g id="Group-24" transform="translate(0.454389, 0.442341)">
                            <path d="M35.9289217,51.7462151 C36.8270739,51.7462151 37.5881396,51.6176431 38.2641173,50.9747832 C38.8739153,50.4033522 39.185905,49.6223965 39.185905,48.7890595 C39.185905,47.9414368 38.8597339,47.1176238 38.2215732,46.5557166 C37.5503227,45.9509521 36.8034383,45.8366659 35.9289217,45.8366659 L35.3285779,45.8366659 L35.3285779,51.7462151 L35.9289217,51.7462151 Z M34.5060596,45.065234 L35.8958319,45.065234 C37.0114314,45.065234 37.9095835,45.2128537 38.7841001,45.9604759 C39.6255268,46.6938124 40.0084233,47.6890548 40.0084233,48.8033453 C40.0084233,49.8843023 39.6160726,50.8509732 38.8030086,51.5795477 C37.9190378,52.3700273 37.035067,52.517647 35.8769234,52.517647 L34.5060596,52.517647 L34.5060596,45.065234 Z" id="Fill-3" fill="#FFFFFF"></path>
                            <polygon id="Fill-5" fill="#FFFFFF" points="42.3365281 45.0638054 46.1749467 45.0638054 46.1749467 45.8352373 43.1590464 45.8352373 43.1590464 48.0495325 46.0851315 48.0495325 46.0851315 48.8209644 43.1590464 48.8209644 43.1590464 51.7447865 46.1749467 51.7447865 46.1749467 52.5162184 42.3365281 52.5162184"></polygon>
                            <mask id="mask-2" fill="white">
                                <use xlink:href="#path-1"></use>
                            </mask>
                            <g id="Clip-8"></g>
                            <polygon id="Fill-7" fill="#FFFFFF" mask="url(#mask-2)" points="52.9720676 52.520028 53.799313 52.520028 53.799313 45.0676149 52.9720676 45.0676149"></polygon>
                            <polygon id="Fill-9" fill="#FFFFFF" mask="url(#mask-2)" points="56.5268592 44.7476136 62.2986684 50.838116 62.2986684 45.0619006 63.1211867 45.0619006 63.1211867 52.8524104 57.3493775 46.7761937 57.3493775 52.5190756 56.5268592 52.5190756"></polygon>
                            <polygon id="Fill-10" fill="#FFFFFF" mask="url(#mask-2)" points="4.05775681 63.6091233 6.10459826 63.6091233 6.10459826 64.3805552 3.23523854 64.3805552 3.23523854 56.9281422 4.05775681 56.9281422"></polygon>
                            <path d="M8.89548784,61.3629232 C8.89548784,61.9153065 8.87657937,62.5534045 9.22165888,63.029597 C9.54782992,63.477218 10.1765364,63.7391239 10.7154277,63.7391239 C11.2448647,63.7391239 11.821573,63.4867418 12.1619253,63.0724543 C12.554276,62.6010237 12.5306404,61.94864 12.5306404,61.3629232 L12.5306404,56.9248088 L13.3531587,56.9248088 L13.3531587,61.5914956 C13.3531587,62.4057848 13.2964333,63.0486447 12.7055437,63.6581711 C12.1950152,64.2153164 11.457585,64.5057938 10.7154277,64.5057938 C10.0158145,64.5057938 9.30201986,64.239126 8.79621839,63.7486477 C8.15333055,63.1248355 8.07296957,62.4438802 8.07296957,61.5914956 L8.07296957,56.9248088 L8.89548784,56.9248088 L8.89548784,61.3629232 Z" id="Fill-11" fill="#FFFFFF" mask="url(#mask-2)"></path>
                            <polygon id="Fill-12" fill="#FFFFFF" mask="url(#mask-2)" points="15.5616675 56.9267136 16.5023637 56.9267136 18.015041 59.7362495 19.5277183 56.9267136 20.4684145 56.9267136 18.4641171 60.5267291 20.652772 64.3791266 19.7120758 64.3791266 18.015041 61.3172087 16.3180062 64.3791266 15.3725829 64.3791266 17.5612378 60.5267291"></polygon>
                            <polygon id="Fill-13" fill="#FFFFFF" mask="url(#mask-2)" points="22.7029224 56.9267136 26.541341 56.9267136 26.541341 57.6981455 23.5301678 57.6981455 23.5301678 59.9124407 26.4515258 59.9124407 26.4515258 60.6838726 23.5301678 60.6838726 23.5301678 63.6076947 26.541341 63.6076947 26.541341 64.3791266 22.7029224 64.3791266"></polygon>
                            <polygon id="Fill-14" fill="#FFFFFF" mask="url(#mask-2)" points="30.0847876 56.4986165 32.7697898 62.7557863 35.4737004 56.4986165 36.9721963 64.3796028 36.1260425 64.3796028 35.1758921 59.3414859 35.1569836 59.3414859 32.7697898 64.689128 30.3967773 59.3414859 30.3778688 59.3414859 29.4229913 64.3796028 28.5862916 64.3796028"></polygon>
                            <path d="M39.9171899,63.6091233 L40.7397082,63.6091233 C41.6614959,63.6091233 42.6352819,63.3805509 42.6352819,62.2472127 C42.6352819,61.0900648 41.5385909,60.9233975 40.6309845,60.9233975 L39.9171899,60.9233975 L39.9171899,63.6091233 Z M39.9171899,60.2091087 L40.2291796,60.2091087 C41.1651487,60.2091087 41.9593042,60.0995844 41.9593042,58.9471985 C41.9593042,57.8138603 41.2502368,57.6995741 40.2386338,57.6995741 L39.9171899,57.6995741 L39.9171899,60.2091087 Z M39.0899445,56.9281422 L40.3095406,56.9281422 C41.6520417,56.9281422 42.7818225,57.4186205 42.7818225,58.9471985 C42.7818225,59.5424391 42.559648,60.061489 42.0538466,60.3948238 C42.9425445,60.6138723 43.4578002,61.4138758 43.4578002,62.3043558 C43.4578002,63.7853145 42.2712939,64.3805552 40.8058878,64.3805552 L39.0899445,64.3805552 L39.0899445,56.9281422 Z" id="Fill-15" fill="#FFFFFF" mask="url(#mask-2)"></path>
                            <path d="M46.2969063,60.6514915 C46.2969063,62.3372131 47.6488617,63.7372191 49.3317151,63.7372191 C51.0051144,63.7372191 52.3570697,62.3372131 52.3570697,60.6514915 C52.3570697,58.96577 51.0240229,57.5705259 49.3317151,57.5705259 C47.6299532,57.5705259 46.2969063,58.96577 46.2969063,60.6514915 M53.1843151,60.6610154 C53.1843151,62.8086437 51.4400091,64.508651 49.3317151,64.508651 C47.213967,64.508651 45.469661,62.8086437 45.469661,60.6610154 C45.469661,58.5276729 47.213967,56.7943321 49.3317151,56.7943321 C51.4400091,56.7943321 53.1843151,58.5276729 53.1843151,60.6610154" id="Fill-16" fill="#FFFFFF" mask="url(#mask-2)"></path>
                            <path d="M56.2867217,61.3629232 C56.2867217,61.9153065 56.2630861,62.5534045 56.6081656,63.029597 C56.9343366,63.477218 57.5630431,63.7391239 58.1019344,63.7391239 C58.6313714,63.7391239 59.2080797,63.4867418 59.5531592,63.0724543 C59.9455098,62.6010237 59.9171471,61.94864 59.9171471,61.3629232 L59.9171471,56.9248088 L60.7396654,56.9248088 L60.7396654,61.5914956 C60.7396654,62.4057848 60.68294,63.0486447 60.0967776,63.6581711 C59.5815219,64.2153164 58.8488188,64.5057938 58.1019344,64.5057938 C57.4023212,64.5057938 56.6885266,64.239126 56.1874522,63.7486477 C55.5398373,63.1248355 55.4594763,62.4438802 55.4594763,61.5914956 L55.4594763,56.9248088 L56.2867217,56.9248088 L56.2867217,61.3629232 Z" id="Fill-17" fill="#FFFFFF" mask="url(#mask-2)"></path>
                            <path d="M64.2036964,60.3772046 L64.4589607,60.3772046 C65.3902026,60.3772046 66.3308988,60.2010134 66.3308988,59.0438656 C66.3308988,57.8152888 65.4422009,57.7010026 64.4495064,57.7010026 L64.2036964,57.7010026 L64.2036964,60.3772046 Z M64.2036964,64.3819838 L63.3811781,64.3819838 L63.3811781,56.9248088 L64.4495064,56.9248088 C65.85346,56.9248088 67.1581442,57.3010009 67.1581442,58.9819605 C67.1581442,60.1295845 66.4443496,60.9391118 65.3003874,61.0391122 L67.6544914,64.3819838 L66.6523427,64.3819838 L64.4116895,61.1057792 L64.2036964,61.1057792 L64.2036964,64.3819838 Z" id="Fill-18" fill="#FFFFFF" mask="url(#mask-2)"></path>
                            <path d="M76.7556088,60.63292 C76.7745173,61.6424482 76.6657936,62.4757851 75.989816,63.2662647 C75.3138383,64.0567443 74.2833269,64.5043653 73.2528155,64.5043653 C71.1681571,64.5043653 69.4427596,62.7662625 69.4427596,60.6757773 C69.4427596,58.5376729 71.1681571,56.7948083 73.3048138,56.7948083 C74.5953166,56.7948083 75.6494636,57.3805251 76.4341649,58.4091009 L75.8338211,58.9710081 C75.2145689,58.0948139 74.3825964,57.5662402 73.2953596,57.5662402 C71.6030519,57.5662402 70.270005,58.9995797 70.270005,60.6853012 C70.270005,61.4757808 70.5819947,62.2234031 71.1350673,62.7900722 C71.6739586,63.3281697 72.4586599,63.7376953 73.233907,63.7376953 C74.5149556,63.7376953 75.8716381,62.7900722 75.8716381,61.4043519 L73.678256,61.4043519 L73.678256,60.63292 L76.7556088,60.63292 Z" id="Fill-19" fill="#FFFFFF" mask="url(#mask-2)"></path>
                            <path d="M20.3577999,19.9289354 C19.2185649,21.8718009 18.6182211,24.0765722 18.6182211,26.3527725 C18.6182211,30.9432685 21.0337776,35.0861434 24.9714657,37.3147244 C26.1154278,35.3718589 26.7157716,33.1718495 26.7157716,30.9004111 C26.7157716,26.3003913 24.3002151,22.1622783 20.3577999,19.9289354 L20.3577999,19.9289354 Z M5.16957461,51.7195483 L1.92677269,39.5671151 C0.314825959,34.3099496 0.149376882,32.9718486 0.130468416,32.8385147 C0.0453803185,32.2242264 -0.0018908466,31.5670807 -0.0018908466,30.9004111 C-0.0018908466,23.0051391 6.37498932,16.5813019 14.2125485,16.5813019 C16.1459391,16.5813019 18.008423,16.9622559 19.752729,17.7098782 L19.7669104,17.6955924 L19.7858188,17.7051163 C22.4424583,14.1670058 26.5881395,12.0622348 31.0174477,12.0289014 C34.5722393,12.0622348 37.8717666,13.3336689 40.443318,15.619393 L39.30881,16.9098747 C37.0492483,14.9003423 34.1467988,13.7812899 31.1261713,13.7574802 C27.2452087,13.7812899 23.6809628,15.5432022 21.3363131,18.5051197 C25.7372585,21.0575116 28.4317149,25.7194365 28.4317149,30.9004111 C28.4317149,33.7718521 27.580834,36.5528164 25.9783415,38.933779 L25.5623552,39.5528293 L24.8958318,39.2290184 C19.9654493,36.8051984 16.9022778,31.8718439 16.9022778,26.3527725 C16.9022778,23.8146664 17.5546199,21.3575129 18.8073057,19.186075 C17.3513538,18.6051201 15.8103139,18.3098808 14.2125485,18.3098808 C7.32041262,18.3098808 1.71877956,23.9575241 1.71877956,30.9004111 C1.71877956,31.4861279 1.75186938,32.0670828 1.83223036,32.6337519 C1.84168459,32.7051808 2.00713367,33.9813768 3.56708212,39.0861606 L6.82406539,51.2719274 L5.16957461,51.7195483 Z" id="Fill-20" fill="#FFFFFF" mask="url(#mask-2)"></path>
                            <path d="M59.3891282,19.9289354 C55.4514402,22.1622783 53.0358836,26.3003913 53.0358836,30.9004111 C53.0358836,33.1766114 53.6362274,35.3813828 54.7801896,37.3147244 C58.7178777,35.0861434 61.1334342,30.9432685 61.1334342,26.3527725 C61.1334342,24.0718103 60.5330904,21.8670389 59.3891282,19.9289354 L59.3891282,19.9289354 Z M74.5773536,51.7195483 L72.9228628,51.2719274 L76.1703918,39.1194941 C77.7397945,33.9766148 77.9099707,32.7004189 77.9194249,32.6480377 C77.9997859,32.0670828 78.0328757,31.4861279 78.0328757,30.9004111 C78.0328757,23.9575241 72.4265155,18.3098808 65.5343797,18.3098808 C63.9366143,18.3098808 62.3955743,18.6051201 60.9396224,19.186075 C62.1923083,21.3575129 62.8493775,23.8099044 62.8493775,26.3527725 C62.8493775,31.8718439 59.786206,36.8051984 54.8558235,39.2290184 L54.1893001,39.5528293 L53.7780409,38.933779 C52.1708213,36.5623403 51.3199403,33.7813759 51.3199403,30.9004111 C51.3199403,25.7194365 54.0096696,21.0575116 58.4106151,18.5051197 C56.0659653,15.5432022 52.5111737,13.7812899 48.7247534,13.7574802 C45.6095836,13.7812899 42.702407,14.9003423 40.4381182,16.9098747 L39.3036102,15.619393 C41.8798887,13.328907 45.179416,12.0622348 48.6065755,12.0289014 C53.1540616,12.0622348 57.3044698,14.1670058 59.9611093,17.7051163 L59.9800178,17.6955924 L59.9941991,17.7098782 C61.7385051,16.9622559 63.600989,16.5813019 65.5343797,16.5813019 C73.3719388,16.5813019 79.7535461,23.0051391 79.7535461,30.9004111 C79.7535461,31.5670807 79.706275,32.2242264 79.6164598,32.8670863 C79.6022784,32.9766105 79.4273751,34.3147115 77.8107012,39.6004486 L74.5773536,51.7195483 Z" id="Fill-21" fill="#FFFFFF" mask="url(#mask-2)"></path>
                            <path d="M39.8755913,2.06695373 C37.8996566,2.06695373 36.2971641,3.68600832 36.2971641,5.67649307 C36.2971641,7.66697783 37.8996566,9.28603241 39.8755913,9.28603241 C41.851526,9.28603241 43.4587456,7.66697783 43.4587456,5.67649307 C43.4587456,3.68600832 41.851526,2.06695373 39.8755913,2.06695373 M39.8755913,11.0146113 C36.9589604,11.0146113 34.5812208,8.61936288 34.5812208,5.67649307 C34.5812208,2.73362327 36.9589604,0.338374865 39.8755913,0.338374865 C42.7969493,0.338374865 45.1746889,2.73362327 45.1746889,5.67649307 C45.1746889,8.61936288 42.7969493,11.0146113 39.8755913,11.0146113" id="Fill-22" fill="#FFFFFF" mask="url(#mask-2)"></path>
                            <path d="M39.8755913,17.4503533 C37.5403957,19.8027443 36.2215302,23.0027581 36.2215302,26.3503916 C36.2215302,29.6932631 37.5403957,32.8932769 39.8755913,35.2456679 C42.2107868,32.8932769 43.5343795,29.6932631 43.5343795,26.3503916 C43.5343795,23.00752 42.2107868,19.8027443 39.8755913,17.4503533 L39.8755913,17.4503533 Z M39.8755913,37.5885351 L39.3083373,37.0790091 C36.25462,34.3647118 34.5008598,30.4504092 34.5008598,26.3503916 C34.5008598,22.245612 36.25462,18.3360714 39.3083373,15.617012 L39.8755913,15.112248 L40.4428453,15.617012 C43.5012896,18.3408333 45.2550499,22.2503739 45.2550499,26.3503916 C45.2550499,30.4456473 43.5012896,34.3599498 40.4428453,37.0790091 L39.8755913,37.5885351 Z" id="Fill-23" fill="#FFFFFF" mask="url(#mask-2)"></path>
                        </g>
                    </g>
                </g>
            </g>
        </g>
    </g>
</svg>